<?xml version="1.0" standalone="no"?>
<!DOCTYPE svg PUBLIC "-//W3C//DTD SVG 20010904//EN"
 "http://www.w3.org/TR/2001/REC-SVG-20010904/DTD/svg10.dtd">
<svg version="1.0" xmlns="http://www.w3.org/2000/svg"
 width="480.000000pt" height="480.000000pt" viewBox="0 0 480.000000 480.000000"
 preserveAspectRatio="xMidYMid meet">

<g transform="translate(0.000000,480.000000) scale(0.100000,-0.100000)"
fill="#000000" stroke="none">
<path d="M2611 3543 c-66 -8 -136 -68 -164 -141 -22 -55 -21 -107 2 -157 54
-118 183 -167 297 -114 104 49 155 189 105 287 -48 94 -131 137 -240 125z"/>
<path d="M2851 2795 c-81 -69 -47 -188 58 -202 53 -7 96 11 121 52 51 82 -4
175 -104 175 -33 0 -52 -7 -75 -25z"/>
<path d="M2424 2606 c-17 -7 -40 -26 -52 -41 -86 -109 41 -258 159 -186 44 27
61 56 61 107 0 93 -88 156 -168 120z"/>
</g>
</svg>
