<?xml version="1.0" encoding="UTF-8"?>
<svg xmlns="http://www.w3.org/2000/svg" xmlns:xlink="http://www.w3.org/1999/xlink" version="1.1" viewBox="0 0 113.3858 56.6924">
  <defs>
    <clipPath id="clippath">
      <rect x="38.777" y="7.0864" width="35.8299" height="42.5178" fill="none"/>
    </clipPath>
    <clipPath id="clippath-1">
      <rect x="38.777" y="7.0864" width="35.8299" height="42.5178" fill="none"/>
    </clipPath>
    <clipPath id="clippath-2">
      <rect x="38.777" y="7.0864" width="35.8299" height="42.5178" fill="none"/>
    </clipPath>
    <clipPath id="clippath-3">
      <rect x="38.777" y="7.0864" width="35.8299" height="42.5178" fill="none"/>
    </clipPath>
    <clipPath id="clippath-4">
      <rect x="38.777" y="7.0864" width="35.8299" height="42.5178" fill="none"/>
    </clipPath>
    <clipPath id="clippath-5">
      <rect x="38.777" y="7.0864" width="35.8299" height="42.5178" fill="none"/>
    </clipPath>
    <clipPath id="clippath-6">
      <rect x="38.777" y="7.0864" width="35.8299" height="42.5178" fill="none"/>
    </clipPath>
    <clipPath id="clippath-7">
      <rect x="38.777" y="7.0864" width="35.8299" height="42.5178" fill="none"/>
    </clipPath>
    <clipPath id="clippath-8">
      <rect x="38.777" y="7.0864" width="35.8299" height="42.5178" fill="none"/>
    </clipPath>
    <clipPath id="clippath-9">
      <rect x="38.777" y="7.0864" width="35.8299" height="42.5178" fill="none"/>
    </clipPath>
    <clipPath id="clippath-10">
      <rect x="38.777" y="7.0864" width="35.8299" height="42.5178" fill="none"/>
    </clipPath>
  </defs>
  <!-- Generator: Adobe Illustrator 28.7.1, SVG Export Plug-In . SVG Version: 1.2.0 Build 142)  -->
  <g>
    <g id="Capa_1">
      <g>
        <path d="M39.5832,7.8888h34.2213v40.9157h-34.2213V7.8888ZM38.778,49.606h35.8308V7.0873h-35.8308v42.5187Z" fill="#2a4a96"/>
        <g clip-path="url(#clippath)">
          <path d="M49.54,30.926c1.5337,2.309,4.1661,3.8324,7.1529,3.8324,4.7351,0,8.5731-3.8248,8.5731-8.5422,0-.4602-.0366-.9121-.1069-1.3518-.3984-2.5011-1.8871-4.6395-3.9664-5.9201-1.3078-.8052-2.8489-1.2703-4.4998-1.2703-1.4568,0-2.8293.3619-4.0302,1.0003-1.0115.5391-1.9012,1.2722-2.6193,2.1506-1.0031,1.2262-1.6705,2.7336-1.8646,4.3864-.0384.33-.059.6646-.059,1.0049,0,1.7409.5221,3.3599,1.4202,4.7098" fill="#7292ca"/>
          <path d="M61.1742,19.2005l-1.3434.285.9271.5305.3122-.3628.3787-.2418-.2746-.2109ZM61.1938,18.9464c2.0784,1.2796,3.5662,3.4189,3.9655,5.921l-.0009-.0028-.6694.5718-.4284-.1003-.1997.1754.0141.1181c.0075.0544.0309.165.0722.3309.0853.3403.1294.6796.1294,1.0106,0,.3075-.0122.4078-.0816.7059l-.3647.0009-1.0265-.8278-.7828.1754-.5034-.0863-.6403.195.2887.2503.5025-.1425.4341.3459-.0675.1519-.18.2878-.3853.5494-.5934.478-1.0988-1.1352-.2831.03,1.1709,1.3378.4744-.0957.1181.2419-.4781.78-.929.885-.4191,1.0565c-.0103.0271-.0534.06-.1209.0928-.1341.0647-.2925.18-.4669.3431-.225.21-.3506.3263-.3768.3497-.1857.1612-.4078.3299-.6666.5034-.2559.1725-.5137.3243-.7678.4547-.4499.2278-.9571.3543-1.4146.3543-.3,0-.6047-.0515-.9009-.1519-.0412-.0121-.0665-.0337-.0665-.0506l.2025-.5718c.0084-.0282.1809-.2222.5052-.5737.1463-.1594.2653-.375.3488-.6338.1228-.3806.21-.6131.2606-.6956.1866-.299.2747-.554.2128-.6169l-1.2159-1.2177-.51-.945.0544-.2231c.0375-.1556.1612-.4294.3984-.8803.1275-.2437.2325-.3721.3497-.4293l.8137-.3994,1.5778.2372.4818.3197.226-.0272.9637.2493.2409-.6252-1.2243-.3441-.4341-.4294-.06.015.2025.5119-.2447.0478-.0262-.06.0853-.0159c.0038.0056-.0731-.3131-.2634-.4031-.0685-.0309-.1135-.061-.1819-.061-.0938,0-.2475.0563-.3272.1304-.2672.2455-.4762.4143-.4959.3993l-.5034-.3787.1865-.4678.0769.0187c.045.0113.0938.0169.1425.0169.1584,0,.2559-.0918.2756-.1828.0244-.1125-.0534-.1669-.0534-.1669.0019-.0028-.0488-.0543-.0488-.0534,0,.0056.0732-.0816.0694-.0816-.0019,0,.1912.0488.3019.0553.1284.0066.254-.0215.3056-.0787l.1219-.1912.2053-.0573.0356-.2709.1256.0094s.0713.0966.1003.2278l.3534-.0928.106-.3619-.0572-.0637.1556-.3469-.134-.0947-.2279.6404-.1265.0159-.0544-.1425-.3206.0234-.179-.2859.389-.3984.3787-.5053.5344.1659.1303.2644.1631-.0038-.06-.3844.4369-.4087-.2916-1.3143.1875-.4115.2109.0112.0291-.3234-1.394-1.5215.0441-.4116,1.154-.2615.1668.0487.6563-.0628.1518.0675,1.0584-.1041v.001ZM49.5393,30.9263l.5925-.4903.4865.1218,1.3021-.9759.0628-.5203-.8559-1.243c-.014-.0188-.0693-.795-.2343-1.3763-.0882-.3037-.2869-1.1877-.2953-1.2055l-.1125-.225-.8137-1.2178.5277-1.3152.421-.0188.0262-.1931-.3121-.2597-.0094-.0563-.0104-.2465c0-.1669.285-.3356.4754-.3356.0506,0,.104.0075.1593.0235.1331.0355.2588.1452.3712.2268.0216.015.376.839.376.839l-.3009.2401-.1472.3608.2053.1613.2859-.4931,1.1859.3965.7275.4134.2212-.2408.6103.0505.4462-.6056-.404-.1527.4228-.5082-.0497-.1706-.6459-.1237.4959-.5175.4697.3056-.0103.1369.3037.0375.2559-.4856-.179-.1566.7556-.7237.6834-.3188.5315-.3468.1032-.0816.0215-.3721-.0909-.2644-.2344-.09.3009-.2362-.0825-.0441c-.2015.134-.6796.4612-1.514.5203-.5934.0413-1.7943-.2222-1.7943-.2222l-1.1906-.1772-.4162-.074c-1.0115.5381-1.9003,1.2702-2.6202,2.1486l-.0356,1.1212-.1791.5119-.4265,1.483.1368.4182-.6759.0956-.6824.7575c-.0385.3299-.0582.6646-.0582,1.0049,0,1.7409.5222,3.359,1.4194,4.7099M50.8752,25.4271l.0384.1622.1547-.0507-.0516-.1631-.1415.0516ZM57.279,26.5455l-.1088-.0131-.0075.2015.1078.0197.0647-.2587-.0337-.0141-.0225.0647ZM60.1514,32.9793c0,.0028-.0938-.1022-.0938-.1022.001.0038-.1434.0862-.1434.0862,0,0,.1097.1097.1069.1097l.1303-.0937ZM60.3511,31.9415l-.271.1566-.3459.0721-.7584.7426.0469.1659.1096-.016.4332-.1847c.1125-.0487.4677-.2465.6515-.4443.1744-.1875.2269-.2606.3281-.4519l-.194-.0403ZM56.3256,25.2218l.1875.0515.0553-.1734-.1322-.0309-.1106.1528ZM56.829,24.8533s-.2175.5307-.2175.5325c0,0,.3431.0329.3431.0366l.0816-.4378-.0591-.0441.0403-.149-.1734-.0947-.0553.1135.0403.043ZM51.1348,25.3502c.0029,0,.12-.0459.12-.0459l-.0468-.1003s-.0675.0581-.0666.0646l-.0066.0816ZM51.0495,25.0287l.0469.1124.1397-.0618s-.0384-.1041-.0431-.1041l-.1435.0535ZM50.9548,24.6546l.0272.1753.166-.0009-.0225-.1885-.1707.0141ZM50.7992,24.3321l.0853.1331.1632.0244.0731-.3281-.2672-.0647-.0544.2353ZM50.6567,23.915l.2691.0318.0834-.6328.0019-.1903-.0469-.1931-.1387-.0112-.1688.9956ZM56.6237,20.481l-.7762.616.2756.1978.6197-.6282-.1191-.1856ZM55.9403,21.5413l-.1097-.0047-.2109.3825-.33.0262-.375.54.2044.1285.5052-.3216.3882-.4106-.0722-.3403ZM55.7519,22.4403l-.3825.3366v.2278l.6084.15,1.2131-.8213-.0319-.3346-.4809-.165-.9262.6065ZM53.9144,23.4378l.4566.0722-.1566.3-.3928-.2166.0928-.1556Z" fill="#2a4a96"/>
        </g>
        <path d="M46.1113,12.0534l-.4303,1.274h.8343l-.404-1.274ZM47.0469,15.0176l-.2222-.7106h-1.4737l-.2363.7106h-1.2309l1.7428-4.7754h.9084l1.7437,4.7754h-1.2318Z" fill="#c4281a"/>
        <g clip-path="url(#clippath-1)">
          <path d="M51.8821,11.557c-.1078-.1603-.27-.2681-.5662-.2681h-.5175v2.683h.5175c.2962,0,.4584-.1078.5662-.2681.0937-.134.1275-.2616.1275-1.0734,0-.8053-.0338-.9393-.1275-1.0734M52.6893,14.5484c-.3291.3282-.7941.4697-1.2919.4697h-1.7774v-4.7754h1.7774c.4978,0,.9628.1406,1.2919.4696.5587.5569.4977,1.1672.4977,1.9181s.061,1.3622-.4977,1.918" fill="#c4281a"/>
        </g>
        <polygon points="54.7873 15.0176 54.7873 10.2422 58.045 10.2422 58.045 11.2884 55.9657 11.2884 55.9657 12.0871 57.7431 12.0871 57.7431 13.1334 55.9657 13.1334 55.9657 13.9714 58.045 13.9714 58.045 15.0176 54.7873 15.0176" fill="#c4281a"/>
        <polygon points="62.9695 15.0176 62.9695 12.7312 62.2899 13.9114 61.5352 13.9114 60.8546 12.7312 60.8546 15.0176 59.6781 15.0176 59.6781 10.2422 60.8368 10.2422 61.913 12.3487 62.9892 10.2422 64.1479 10.2422 64.1479 15.0176 62.9695 15.0176" fill="#c4281a"/>
        <polygon points="65.8939 15.0176 65.8939 10.2422 69.1525 10.2422 69.1525 11.2884 67.0732 11.2884 67.0732 12.0871 68.8488 12.0871 68.8488 13.1334 67.0732 13.1334 67.0732 13.9714 69.1525 13.9714 69.1525 15.0176 65.8939 15.0176" fill="#c4281a"/>
        <path d="M45.0373,38.2306l-.1931.571h.374l-.1809-.571ZM45.4564,39.559l-.1004-.3178h-.6599l-.105.3178h-.5522l.7809-2.1393h.4069l.7809,2.1393h-.5512Z" fill="#c4281a"/>
        <g clip-path="url(#clippath-2)">
          <path d="M47.9562,39.3365c-.1838.1894-.3891.2409-.6244.2409-.2503,0-.4396-.0843-.5971-.2409-.2259-.225-.2175-.5259-.2175-.8475,0-.3206-.0084-.6215.2175-.8474.1575-.1547.3384-.2391.5971-.2391.5522,0,.7875.3572.8381.7088h-.5306c-.0422-.1622-.1265-.241-.3075-.241-.0965,0-.1687.0432-.2081.0928-.0487.0638-.0778.135-.0778.5259s.0291.4669.0778.5297c.0394.0506.1116.0891.2081.0891.1116,0,.1875-.0328.2353-.0825.061-.061.0816-.1482.0816-.2288v-.03h-.3169v-.4396h.8409v.2981c0,.345-.0534.5465-.2165.7115" fill="#c4281a"/>
        </g>
        <polygon points="48.9305 39.559 48.9305 37.4197 50.3901 37.4197 50.3901 37.8885 49.4583 37.8885 49.4583 38.2457 50.2542 38.2457 50.2542 38.7144 49.4583 38.7144 49.4583 39.0903 50.3901 39.0903 50.3901 39.559 48.9305 39.559" fill="#c4281a"/>
        <polygon points="52.3711 39.559 51.6839 38.4829 51.6839 39.559 51.1552 39.559 51.1552 37.4197 51.6173 37.4197 52.3045 38.496 52.3045 37.4197 52.8323 37.4197 52.8323 39.559 52.3711 39.559" fill="#c4281a"/>
        <g clip-path="url(#clippath-3)">
          <path d="M54.4037,39.5773c-.2503,0-.4397-.0843-.5972-.2399-.2259-.2259-.2175-.5259-.2175-.8484,0-.3207-.0084-.6216.2175-.8466.1575-.1565.3469-.2399.5972-.2399.4069,0,.7359.2249.8147.6956h-.5372c-.0328-.1191-.0994-.2279-.2747-.2279-.0965,0-.1687.0394-.2081.0909-.0478.0629-.0806.137-.0806.5279,0,.3918.0328.4668.0806.5296.0394.0506.1116.09.2081.09.1753,0,.2419-.1078.2747-.2278h.5372c-.0788.4715-.4078.6965-.8147.6965" fill="#c4281a"/>
        </g>
        <polygon points="55.8875 39.559 55.8875 37.4197 57.3471 37.4197 57.3471 37.8885 56.4153 37.8885 56.4153 38.2457 57.2112 38.2457 57.2112 38.7144 56.4153 38.7144 56.4153 39.0903 57.3471 39.0903 57.3471 39.559 55.8875 39.559" fill="#c4281a"/>
        <g clip-path="url(#clippath-4)">
          <path d="M60.459,38.0091c-.0479-.0722-.12-.121-.2541-.121h-.2316v1.2019h.2316c.1341,0,.2062-.0478.2541-.1191.0431-.0609.0571-.1181.0571-.4809,0-.3609-.014-.4219-.0571-.4809M60.8208,39.3487c-.1462.1472-.3562.2119-.5784.2119h-.7968v-2.1402h.7968c.2222,0,.4322.0627.5784.209.2503.2503.2231.5241.2231.8606,0,.3356.0272.6093-.2231.8587" fill="#c4281a"/>
        </g>
        <polygon points="61.8015 39.559 61.8015 37.4197 63.2611 37.4197 63.2611 37.8885 62.3293 37.8885 62.3293 38.2457 63.1252 38.2457 63.1252 38.7144 62.3293 38.7144 62.3293 39.0903 63.2611 39.0903 63.2611 39.559 61.8015 39.559" fill="#c4281a"/>
        <polygon points="65.3598 39.559 65.3598 37.4197 65.8876 37.4197 65.8876 39.0903 66.7894 39.0903 66.7894 39.559 65.3598 39.559" fill="#c4281a"/>
        <path d="M68.2698,38.2306l-.1931.571h.374l-.1809-.571ZM68.6889,39.559l-.1004-.3178h-.66l-.104.3178h-.5522l.7809-2.1393h.4059l.781,2.1393h-.5512Z" fill="#c4281a"/>
        <polygon points="45.1846 41.294 45.1846 42.9655 44.6568 42.9655 44.6568 41.294 44.129 41.294 44.129 40.8253 45.7124 40.8253 45.7124 41.294 45.1846 41.294" fill="#c4281a"/>
        <g clip-path="url(#clippath-5)">
          <path d="M47.7337,41.2973h-.2991v.4322h.2991c.1443,0,.2287-.104.2287-.2156s-.0844-.2166-.2287-.2166M47.9924,42.9651l-.3797-.7969h-.1781v.7969h-.5278v-2.1393h.8503c.4762,0,.7331.3356.7331.6881,0,.2906-.181.4743-.3506.5578l.4649.8934h-.6121Z" fill="#c4281a"/>
        </g>
        <path d="M50.5408,41.6367l-.1932.57h.3741l-.1809-.57ZM50.9598,42.9651l-.1003-.3188h-.66l-.105.3188h-.5521l.7809-2.1393h.4068l.7809,2.1393h-.5512Z" fill="#c4281a"/>
        <polygon points="53.831 42.9651 53.1438 41.8889 53.1438 42.9651 52.6151 42.9651 52.6151 40.8258 53.0773 40.8258 53.7644 41.902 53.7644 40.8258 54.2922 40.8258 54.2922 42.9651 53.831 42.9651" fill="#c4281a"/>
        <g clip-path="url(#clippath-6)">
          <path d="M56.225,42.9824c-.3281,0-.5972-.0599-.8146-.2812l.3375-.3375c.1115.1116.3084.15.4799.15.2091,0,.3075-.0684.3075-.1921,0-.0516-.0113-.0938-.0422-.1266-.0272-.0272-.0722-.0478-.1415-.0572l-.2597-.0356c-.1903-.0272-.3347-.09-.4312-.1894-.0985-.1022-.1472-.2465-.1472-.4303,0-.39.2953-.6749.7837-.6749.3075,0,.54.0721.7237.2549l-.3318.331c-.136-.135-.3132-.1257-.4069-.1257-.1837,0-.2597.105-.2597.1978,0,.0263.0094.0666.0422.0994.0272.0272.0731.0535.1481.0629l.2597.0356c.1922.0281.3319.0872.4219.1772.1143.1115.1603.2699.1603.4696,0,.435-.3769.6721-.8297.6721" fill="#c4281a"/>
        </g>
        <rect x="58.2894" y="40.8257" width=".5269" height="2.1384" fill="#c4281a"/>
        <polygon points="61.0655 41.294 61.0655 42.9655 60.5377 42.9655 60.5377 41.294 60.0099 41.294 60.0099 40.8253 61.5933 40.8253 61.5933 41.294 61.0655 41.294" fill="#c4281a"/>
        <rect x="62.7874" y="40.8257" width=".5268" height="2.1384" fill="#c4281a"/>
        <g clip-path="url(#clippath-7)">
          <path d="M65.5947,41.3692c-.0393-.0506-.1153-.0928-.2109-.0928-.0966,0-.1706.0422-.2119.0928-.0478.0638-.0778.135-.0778.5259s.03.4594.0778.5232c.0413.0506.1153.0956.2119.0956.0956,0,.1716-.045.2109-.0956.0479-.0638.0797-.1323.0797-.5232s-.0318-.4621-.0797-.5259M65.9838,42.7426c-.1556.1556-.3375.24-.6.24-.2615,0-.4434-.0844-.5991-.24-.2268-.2259-.2174-.5259-.2174-.8475s-.0094-.6215.2174-.8474c.1557-.1557.3376-.24.5991-.24.2625,0,.4444.0843.6.24.2259.2259.2165.5259.2165.8474s.0094.6216-.2165.8475" fill="#c4281a"/>
        </g>
        <polygon points="68.6684 42.9651 67.9812 41.8889 67.9812 42.9651 67.4515 42.9651 67.4515 40.8258 67.9146 40.8258 68.6018 41.902 68.6018 40.8258 69.1296 40.8258 69.1296 42.9651 68.6684 42.9651" fill="#c4281a"/>
        <path d="M44.9692,44.0179h-.3l.1482-.5438h.509l-.3572.5438ZM44.1312,46.3756v-2.1477h1.4643v.4706h-.9347v.359h.7987v.4697h-.7987v.3768h.9347v.4716h-1.4643Z" fill="#c4281a"/>
        <g clip-path="url(#clippath-8)">
          <path d="M47.551,46.3931c-.2512,0-.4415-.0835-.599-.2409-.2269-.2269-.2175-.5269-.2175-.8503,0-.3225-.0094-.6234.2175-.8503.1575-.1566.3478-.2419.599-.2419.4087,0,.7378.2269.8165.7012h-.5381c-.0337-.1218-.0994-.2296-.2756-.2296-.0965,0-.1687.0384-.209.09-.0479.0628-.0807.1396-.0807.5306,0,.3918.0328.4669.0807.5306.0403.0515.1125.09.209.09.1762,0,.2419-.1088.2756-.2288h.5381c-.0787.4735-.4078.6994-.8165.6994" fill="#c4281a"/>
          <path d="M50.4412,44.7734c-.0403-.0507-.1153-.0938-.2128-.0938-.0965,0-.1715.0431-.2109.0938-.0488.0637-.0788.1359-.0788.5287,0,.3919.03.4622.0788.525.0394.0497.1144.0956.2109.0956.0975,0,.1725-.0459.2128-.0956.0478-.0628.0778-.1331.0778-.525,0-.3928-.03-.465-.0778-.5287M50.8312,46.1523c-.1575.1567-.3394.241-.6028.241-.2625,0-.4443-.0843-.6018-.241-.2269-.2259-.2175-.5277-.2175-.8502s-.0094-.6253.2175-.8503c.1575-.1565.3393-.2418.6018-.2418.2634,0,.4453.0853.6028.2418.2269.225.2175.5278.2175.8503s.0094.6243-.2175.8502" fill="#c4281a"/>
        </g>
        <polygon points="52.2477 46.3756 52.2477 44.2279 52.7774 44.2279 52.7774 45.904 53.682 45.904 53.682 46.3756 52.2477 46.3756" fill="#c4281a"/>
        <g clip-path="url(#clippath-9)">
          <path d="M55.7071,44.7734c-.0403-.0507-.1153-.0938-.2128-.0938-.0965,0-.1715.0431-.2109.0938-.0497.0637-.0787.1359-.0787.5287,0,.3919.029.4622.0787.525.0394.0497.1144.0956.2109.0956.0975,0,.1725-.0459.2128-.0956.0478-.0628.0779-.1331.0779-.525,0-.3928-.0301-.465-.0779-.5287M56.0971,46.1523c-.1575.1567-.3393.241-.6028.241-.2624,0-.4443-.0843-.6018-.241-.2269-.2259-.2175-.5277-.2175-.8502s-.0094-.6253.2175-.8503c.1575-.1565.3394-.2418.6018-.2418.2635,0,.4453.0853.6028.2418.2269.225.2175.5278.2175.8503s.0094.6243-.2175.8502" fill="#c4281a"/>
          <path d="M58.8871,46.1523c-.1838.1904-.39.241-.6263.241-.2512,0-.4415-.0843-.599-.241-.2269-.2259-.2185-.5277-.2185-.8502s-.0084-.6253.2185-.8503c.1575-.1565.3393-.2418.599-.2418.554,0,.7894.359.8418.7124h-.5324c-.0441-.1631-.1275-.2428-.3094-.2428-.0975,0-.1697.0431-.2081.0938-.0497.0637-.0797.1359-.0797.5287,0,.3919.03.4668.0797.5306.0384.0506.1106.09.2081.09.1125,0,.1875-.0328.2363-.0844.0599-.06.0806-.1481.0806-.2278v-.0309h-.3169v-.4397h.8437v.2981c0,.346-.0543.5494-.2174.7143" fill="#c4281a"/>
        </g>
        <rect x="60.305" y="44.2269" width=".5287" height="2.1468" fill="#c4281a"/>
        <g clip-path="url(#clippath-10)">
          <path d="M63.0628,44.7747c-.0385-.0525-.1135-.0937-.211-.0937s-.1725.0412-.2128.0937c-.0478.0628-.0778.1359-.0778.5278s.03.4603.0778.524c.0403.0507.1153.0966.2128.0966.015,0,.0272,0,.0422-.0028l-.1359-.1359.27-.2682.1012.1022c.0066-.0731.0131-.1725.0131-.3159,0-.3919-.03-.465-.0796-.5278M63.4359,46.4593l-.166-.1659c-.1153.0656-.2512.0994-.4181.0994-.2634,0-.4453-.0834-.6028-.2409-.2268-.226-.2175-.5269-.2175-.8494s-.0093-.6243.2175-.8503c.1575-.1574.3394-.2418.6028-.2418s.4444.0844.6009.2418c.2269.226.2194.5279.2194.8503,0,.2672.0056.524-.1237.7312l.1565.1576-.269.268Z" fill="#c4281a"/>
          <path d="M65.6478,46.3931c-.4481,0-.8137-.3009-.8137-.7706v-1.394h.5287v1.3808c0,.1988.1087.3132.285.3132.1753,0,.2906-.1144.2906-.3132v-1.3808h.5297v1.394c0,.4697-.3722.7706-.8203.7706" fill="#c4281a"/>
        </g>
        <polygon points="67.6998 46.3756 67.6998 44.2279 69.1641 44.2279 69.1641 44.6985 68.2295 44.6985 68.2295 45.0575 69.0282 45.0575 69.0282 45.5272 68.2295 45.5272 68.2295 45.904 69.1641 45.904 69.1641 46.3756 67.6998 46.3756" fill="#c4281a"/>
      </g>
    </g>
  </g>
</svg>