<?xml version="1.0" encoding="UTF-8"?>
<svg xmlns="http://www.w3.org/2000/svg" version="1.1" viewBox="0 0 113.3858 56.6924">
  <!-- Generator: Adobe Illustrator 28.7.1, SVG Export Plug-In . SVG Version: 1.2.0 Build 142)  -->
  <g>
    <g id="Calque_1">
      <g>
        <g>
          <path d="M53.5725,23.1086c-.2817,0-.5641-.0483-.8374-.1456-.6279-.2233-1.131-.6776-1.4171-1.2795-.5905-1.2423-.0601-2.7332,1.1819-3.3237,1.2421-.5903,2.7333-.0604,3.3238,1.1819h0c.5903,1.2426.0601,2.7335-1.1819,3.324-.3399.1615-.7037.2429-1.0693.2429ZM53.5694,18.6115c-.2931,0-.5847.0652-.857.1949-.4826.2293-.8469.6327-1.0258,1.1361-.1791.5033-.1513,1.0463.078,1.5286.2294.4826.6328.8471,1.1361,1.026.5036.1791,1.0465.1518,1.5286-.078.9961-.4734,1.4212-1.6689.9478-2.6649h0c-.2293-.4826-.6327-.8469-1.1361-1.0258-.2192-.078-.4456-.1169-.6716-.1169Z" fill="#5b7dbc"/>
          <path d="M53.573,22.0152c-.5248,0-1.0291-.2957-1.2691-.8003-.3317-.6986-.0335-1.5368.6646-1.869.3385-.1607.719-.1803,1.0724-.0548.3529.1258.6359.3812.7966.7194h0c.1608.3385.1804.7192.0549,1.0721-.1256.353-.381.6362-.7194.797-.1939.0919-.3986.1356-.6.1356ZM53.5702,19.7042c-.1331,0-.2656.0294-.3892.0883-.4522.2149-.6453.7578-.4305,1.2102.2149.4522.7581.6448,1.21.4302.2192-.104.3848-.2872.4659-.5159.0814-.2286.0688-.4751-.0355-.694v-.0003c-.104-.2189-.2872-.3843-.5156-.4656-.0997-.0355-.2026-.0529-.3051-.0529Z" fill="#2b4894"/>
        </g>
        <g>
          <path d="M26.1205,30.7179c-.5337.2525-.9012.2559-1.1011.0114-.2003-.245-.3005-.7306-.3005-1.4576v-4.2049c0-1.1714-.3487-2.1023-1.0455-2.7922-.6973-.6894-1.7875-1.0346-3.2709-1.0346-.6527,0-1.4497.0704-2.3915.2113-.9424.1413-1.9174.3303-2.9257.5674v3.2927h.1111c1.038-.8451,2.0171-1.5608,2.9371-2.1465.9195-.5863,1.6019-.8789,2.0468-.8789.2966,0,.5039.189.623.5669.1185.3784.178,1.0276.178,1.9471v1.2519c-.0548-.021-.109-.0422-.1671-.0615-.3338-.1116-.675-.1965-1.0232-.256-.3487-.059-.6785-.0893-.9904-.0893-.8159-.0441-1.5797.0779-2.2914.3676-.7122.2891-1.2791.7192-1.7021,1.29-.4226.5713-.6339,1.2275-.6339,1.969,0,.6085.1369,1.1868.4116,1.7353.2743.549.686.9939,1.2345,1.3352.5486.3412,1.2017.5118,1.9581.5118.7117,0,1.3351-.1448,1.8688-.434.5341-.2891.9527-.6378,1.2572-1.0454.0895-.1203.1659-.2376.2355-.3533.1181.4021.3013.7472.5541,1.0317.4746.5337,1.1348.801,1.9804.801.7266,0,1.3088-.1929,1.7463-.5788.4374-.3854.6859-.8823.7454-1.4904l-.0446-.0669ZM20.7363,30.6068c-.2668.1632-.556.2445-.8674.2445-.5639,0-1.0088-.1999-1.3352-.6006-.3263-.4003-.4895-.9121-.4895-1.535,0-.4151.0853-.7822.2559-1.1015.1706-.3185.434-.556.7901-.7118.3556-.1557.801-.2187,1.3346-.189.1483.0149.2966.0259.4449.0333.0402.002.073.0114.1116.0151v3.0663c0,.1979.0128.3845.0334.5643-.0903.0815-.1823.1557-.2784.2144Z" fill="#5b7dbc"/>
          <path d="M39.0691,32.3198c-.1781-.6675-.3189-1.2458-.4226-1.7353-.1041-.4895-.1557-1.0157-.1557-1.5797v-4.049c0-1.1715-.3487-2.084-1.046-2.7368-.6973-.6526-1.5722-.979-2.6251-.979-.9647,0-1.784.2634-2.4585.7901-.4711.3676-.8442.7849-1.1239,1.2497v-1.9064h-4.3382v.0893l.0665.2445c.178.6676.3154,1.2459.4116,1.7354.0968.4895.1449,1.0162.1449,1.5796v3.9826c0,.564-.0481,1.0902-.1449,1.5797-.0962.4895-.2336,1.0678-.4116,1.7353l-.0665.2451v.0887h4.9835v-.0887l-.0665-.2451c-.178-.6675-.3194-1.2458-.423-1.7353-.1037-.4895-.1558-1.0157-.1558-1.5797v-4.9541c.6166-.359,1.203-.5411,1.7577-.5411.5193.0148.9458.178,1.2796.4895.3338.3114.5004.8009.5004,1.468v3.5377c0,.564-.0481,1.0902-.1443,1.5797-.0967.4895-.2341,1.0678-.4116,1.7353l-.067.2451v.0887h4.9839v-.0887l-.0669-.2451Z" fill="#5b7dbc"/>
          <path d="M47.0893,21.2068c-.6452.2004-1.1829.5525-1.6129,1.0569-.3455.4048-.6408.8797-.8902,1.4181v-2.3084h-4.3382v.0893l.0665.2445c.178.6676.3154,1.2459.4116,1.7354.0967.4895.1448,1.0162.1448,1.5796v3.9826c0,.564-.0481,1.0902-.1448,1.5797-.0962.4895-.2336,1.0678-.4116,1.7353l-.0665.2451v.0887h4.9834v-.0887l-.0664-.2451c-.1781-.6675-.3194-1.2458-.4231-1.7353s-.1557-1.0157-.1557-1.5797v-4.7642c.4388-.2625.8801-.3926,1.3242-.3864.5262.008,1.0192.1449,1.4795.4117.4592.2668.8748.6085,1.2458,1.0237h.1111l.5788-3.9603c-.8456-.2817-1.591-.3229-2.2363-.1225Z" fill="#ca4837"/>
        </g>
        <g>
          <path d="M54.4018,32.2301c-.0645-.06-.0967-.1801-.0967-.3601v-1.4398c0-.3214-.1007-.5743-.3021-.7583-.2013-.1845-.4969-.2763-.8868-.2763-.1844,0-.3977.0214-.6397.064-.2421.0432-.4896.1032-.7425.1801v.8228h.0323c.2445-.2317.484-.4231.7201-.5754.2356-.1522.4305-.2281.5847-.2281.1329,0,.2366.058.3115.1736.0754.1155.1126.302.1126.5589v.3944c-.0457-.016-.0947-.031-.1508-.0437-.0838-.0194-.1706-.0312-.2604-.0357-.2787-.0382-.5391-.0203-.7811.0545-.2421.0754-.435.1964-.5783.3636-.1438.1671-.2152.364-.2152.5912,0,.1716.0396.3332.119.485.0788.1523.1979.2743.3566.3665.1582.0923.3447.1384.5589.1384s.4018-.0441.5625-.1319c.1606-.0878.2881-.1949.3823-.3214.0126-.0169.0195-.0325.0309-.0491.0261.1206.0732.223.1462.303.1131.1245.2708.1865.4722.1865.1542,0,.2826-.0397.3858-.119.1027-.0794.1691-.1855.1989-.3179l-.0124-.0194c-.1419.0556-.2445.0536-.3085-.0064ZM53.3508,32.1398c-.118.0858-.2454.1284-.3823.1284-.1801,0-.3279-.061-.4439-.183-.1156-.122-.1736-.2796-.1736-.4721,0-.1419.0397-.2678.119-.3794.0794-.1116.1984-.192.3566-.2411.1587-.049.3472-.0565.5659-.0222.0378.0057.0698.0044.1027.0043v1.0109c0,.0063.0011.0117.0012.0179-.0458.0513-.0935.0985-.1456.1363Z" fill="#5b7dbc"/>
          <path d="M54.9608,33.1942c0,.2827.1487.4776.4463.5848.2981.1071.6249.1607.9805.1607.437,0,.8164-.072,1.1378-.2153.3214-.1438.4821-.4017.4821-.7747,0-.2787-.0893-.4959-.2669-.6522-.178-.1567-.421-.2346-.7296-.2346h-1.0479c-.1453,0-.2589-.0139-.3402-.0417-.0819-.0282-.1225-.0848-.1225-.1705,0-.0987.058-.1766.1736-.2347.0393-.0196.0805-.0312.1212-.0442.1755.0611.355.0988.5409.0988.2187,0,.4329-.0436.6427-.1314s.3824-.2187.5173-.3923.2029-.3804.2029-.6205c0-.2395-.067-.4443-.1994-.6134-.0861-.1097-.1945-.196-.313-.2716.0995-.0382.1975-.0598.2936-.0598.1543,0,.2976.0367.4305.1096l.0129-.0064.122-.6363c-.2653-.0387-.485.0044-.6586.1284-.1343.0963-.2402.2292-.3193.397-.0287-.0144-.0522-.0342-.0824-.0468-.2098-.0878-.4266-.1315-.6492-.1315s-.438.0437-.6458.1315-.3784.2177-.5113.3888c-.1324.1716-.1989.375-.1989.6105,0,.2401.0665.4469.1989.6205.1122.1465.2572.2557.4228.3411-.1117.0299-.2134.0689-.3003.1216-.2019.1221-.3021.3095-.3021.5624,0,.193.0675.3527.2024.4791.0069.0064.017.0108.0244.0169-.029.0249-.0635.0439-.0889.0729-.118.1349-.1765.2862-.1765.4533ZM55.9185,29.8742c.0981-.1646.2375-.2474.4176-.2474.18,0,.3203.0838.421.2509.1007.1672.1513.3854.1513.6552,0,.2703-.0506.4885-.1513.6556-.1007.1672-.241.251-.421.251-.1801,0-.3195-.0828-.4176-.2475-.0987-.1652-.1479-.3848-.1479-.6591,0-.2738.0492-.4935.1479-.6587ZM55.9056,32.8406h1.0797c.1671,0,.2911.0323.3729.0962.0814.0645.122.1478.122.251,0,.1543-.0952.2763-.2861.366-.1905.0903-.434.1349-.7296.1349-.3467,0-.6061-.0684-.7777-.2053-.1711-.1374-.2549-.3174-.2504-.5401,0-.061.0072-.1114.0153-.1604.1228.0373.2723.0577.4539.0577Z" fill="#5b7dbc"/>
          <path d="M61.015,30.1733c-.1027-.2356-.2624-.4245-.4786-.5659-.2168-.1413-.4811-.2118-.7941-.2118-.304,0-.5763.0675-.8163.2024-.2401.1349-.4266.3278-.559.5783-.1329.251-.1994.5411-.1994.8709,0,.3472.073.6473.2188.8997.1453.2529.3382.4439.5782.5723.2401.1285.497.193.7713.193.2316,0,.4414-.0442.6299-.132.1884-.0878.3491-.2033.482-.3472.133-.1433.2317-.2966.2956-.4592l-.0258-.0193c-.1795.1497-.3521.2579-.5173.3243-.1651.0664-.3352.0997-.5108.0997-.2316,0-.4255-.059-.5818-.1766-.1562-.118-.2732-.2807-.3501-.4885-.06-.1612-.0895-.3484-.103-.5495h2.1146c0-.2916-.0516-.555-.1542-.7906ZM59.0426,30.8049c0-.0052-.0011-.0094-.0011-.0146-.0039-.3298.0506-.6051.1642-.8258s.2881-.3313.5237-.3313c.2098,0,.3656.0922.4662.2763.1007.1845.1553.431.1637.7394l-1.3167.156Z" fill="#5b7dbc"/>
          <path d="M64.6499,32.1011c-.0238-.1324-.0357-.2718-.0357-.4176v-1.2017c0-.3556-.1007-.6259-.3021-.8099-.2013-.1845-.4518-.2763-.7518-.2763-.253,0-.4747.0675-.6651.2024-.1465.1035-.2653.2427-.37.4004v-.5645h-.9572v.0257l.0253.0903c.0387.1582.0699.304.0932.4369.0238.1329.0357.2723.0357.4176v1.2791c0,.1458-.0119.2852-.0357.4176-.0233.1329-.0545.2788-.0932.4375l-.0253.0897v.0258h1.1055v-.0258l-.0194-.0897c-.0386-.1587-.0699-.3046-.0932-.4375-.0238-.1324-.0357-.2718-.0357-.4176v-1.4913c.2312-.1889.4564-.2892.675-.2892.1756.0045.3224.0625.4404.1736.1175.1116.1766.2807.1766.5079v1.099c0,.1458-.0119.2852-.0352.4176-.0239.1329-.0571.2788-.0997.4375l-.0194.0897v.0258h1.1055v-.0258l-.0193-.0897c-.0427-.1587-.0759-.3046-.0992-.4375Z" fill="#5b7dbc"/>
          <path d="M67.2914,32.5867c.182-.0838.3372-.1949.4657-.3343.1289-.1394.2272-.2902.2956-.4533l-.0188-.0129c-.3259.2618-.6582.3923-.9964.3923-.2272,0-.4191-.0566-.5754-.1701-.1562-.1136-.2742-.2713-.3536-.4727-.0793-.2013-.119-.4389-.119-.7132-.004-.2187.0218-.4171.0774-.5946.0555-.1781.1383-.3214.2474-.4306.1092-.1095.2475-.1641.4147-.1641.2142,0,.421.0962.6199.2891.1994.193.374.4137.5243.6622h.0317l-.0129-.8868c-.0511-.0174-.1136-.0432-.186-.0774-.18-.0684-.3472-.123-.5014-.1637-.1542-.0406-.3194-.061-.495-.061-.3129,0-.5892.065-.8292.1959-.2401.131-.4275.3205-.5624.5689-.1349.2485-.2024.5441-.2024.8868,0,.3556.0729.6586.2187.9096.1453.2504.3383.4394.5783.5654.24.1265.497.19.7712.19.2227,0,.4251-.0422.6076-.1255Z" fill="#5b7dbc"/>
          <path d="M69.1458,32.5192c.24.1285.4969.193.7712.193.2316,0,.4414-.0442.6299-.132s.3492-.2033.4821-.3472c.1329-.1433.2316-.2966.2956-.4592l-.0258-.0193c-.1795.1497-.3522.2579-.5173.3243-.1652.0664-.3353.0997-.5109.0997-.2316,0-.4255-.059-.5817-.1766-.1562-.118-.2733-.2807-.3502-.4885-.06-.1612-.0895-.3484-.103-.5495h2.1147c0-.2916-.0516-.555-.1543-.7906s-.2624-.4245-.4786-.5659c-.2167-.1413-.4811-.2118-.794-.2118-.304,0-.5763.0675-.8164.2024-.24.1349-.4265.3278-.5589.5783-.133.251-.1994.5411-.1994.8709,0,.3472.0729.6473.2187.8997.1453.2529.3383.4439.5783.5723ZM69.3868,29.9645c.1136-.2207.2882-.3313.5238-.3313.2098,0,.3655.0922.4662.2763.1007.1845.1552.431.1636.7394l-1.3166.156c0-.0052-.0011-.0094-.0011-.0146-.004-.3298.0506-.6051.1641-.8258Z" fill="#5b7dbc"/>
          <path d="M75.4153,32.1011c-.0238.1329-.0571.2788-.0997.4375l-.0194.0897v.0258h1.1055v-.0258l-.0193-.0897c-.0426-.1587-.0759-.3046-.0992-.4375-.0238-.1324-.0357-.2718-.0357-.4176v-1.2017c0-.3556-.1007-.6259-.3021-.8099-.2013-.1845-.4518-.2763-.7518-.2763-.253,0-.4747.0675-.6651.2024-.1465.1035-.2653.2427-.37.4004v-.5645h-.9572v.0257l.0253.0903c.0387.1582.0699.304.0932.4369.0238.1329.0357.2723.0357.4176v1.2791c0,.1458-.0119.2852-.0357.4176-.0233.1329-.0545.2788-.0932.4375l-.0253.0897v.0258h1.1055v-.0258l-.0193-.0897c-.0387-.1587-.07-.3046-.0933-.4375-.0238-.1324-.0357-.2718-.0357-.4176v-1.4913c.2312-.1889.4564-.2892.675-.2892.1756.0045.3224.0625.4404.1736.1176.1116.1766.2807.1766.5079v1.099c0,.1458-.0119.2852-.0352.4176Z" fill="#5b7dbc"/>
          <path d="M79.3974,32.6928c.1542,0,.2827-.0397.3858-.119.1027-.0794.1692-.1855.1989-.3179l-.0124-.0194c-.1418.0556-.2445.0536-.3085-.0064-.0645-.06-.0967-.1801-.0967-.3601v-1.4398c0-.3214-.1007-.5743-.302-.7583-.2014-.1845-.497-.2763-.8868-.2763-.1845,0-.3978.0214-.6398.064-.242.0432-.4895.1032-.7425.1801v.8228h.0323c.2445-.2317.484-.4231.7201-.5754.2356-.1522.4305-.2281.5847-.2281.133,0,.2366.058.3115.1736.0754.1155.1126.302.1126.5589v.3944c-.0457-.016-.0946-.031-.1508-.0437-.0838-.0194-.1706-.0312-.2604-.0357-.2787-.0382-.5391-.0203-.7811.0545-.242.0754-.435.1964-.5783.3636-.1438.1671-.2152.364-.2152.5912,0,.1716.0396.3332.119.485.0788.1523.1979.2743.3566.3665.1582.0923.3447.1384.559.1384s.4017-.0441.5624-.1319.2881-.1949.3824-.3214c.0125-.0169.0195-.0325.0308-.0491.0262.1206.0732.223.1462.303.1131.1245.2708.1865.4722.1865ZM78.6103,32.1398c-.1181.0858-.2455.1284-.3824.1284-.18,0-.3279-.061-.4439-.183-.1156-.122-.1736-.2796-.1736-.4721,0-.1419.0397-.2678.119-.3794.0794-.1116.1984-.192.3566-.2411.1587-.049.3472-.0565.5659-.0222.0378.0057.0698.0044.1027.0043v1.0109c0,.0063.0011.0117.0012.0179-.0458.0513-.0935.0985-.1455.1363Z" fill="#5b7dbc"/>
          <path d="M81.3733,32.0466c-.0794-.0834-.1185-.2108-.1185-.3824v-1.9665h.8803v-.2638h-.8803v-1.0153h-.0516c-.1459.2401-.313.4478-.5015.6234-.1884.1756-.4285.3194-.7196.4305v.2252h.4692v2.0503c0,.304.0724.5411.2182.7102s.3472.254.6041.254c.2356,0,.434-.0655.5946-.1964.1607-.1305.2837-.2986.3695-.5044-.1884.1071-.366.1606-.5331.1606-.1414,0-.252-.0416-.3313-.1254Z" fill="#5b7dbc"/>
          <path d="M83.125,28.8491c.1414,0,.2644-.0501.3695-.1508.1052-.1007.1578-.2241.1578-.3699,0-.1415-.0516-.2625-.1543-.3631-.1032-.1007-.2272-.1508-.373-.1508s-.2698.0501-.3729.1508c-.1027.1006-.1543.2216-.1543.3631,0,.1458.0516.2692.1543.3699.1031.1007.2271.1508.3729.1508Z" fill="#5b7dbc"/>
          <path d="M83.5555,31.6835v-2.2496h-.9512v.0257l.0257.0903c.0387.1582.0695.304.0933.4369.0233.1329.0352.2723.0352.4176v1.2791c0,.1458-.0119.2852-.0352.4176-.0238.1329-.057.2788-.0997.4375l-.0193.0897v.0258h1.1055v-.0258l-.0258-.0897c-.0382-.1587-.0695-.3046-.0928-.4375-.0238-.1324-.0357-.2718-.0357-.4176Z" fill="#5b7dbc"/>
          <path d="M84.9021,32.5158c.2464.1309.5217.1964.8262.1964.2956,0,.5689-.0655.8194-.1964.2504-.1305.4498-.3224.5976-.5749.1478-.2529.2217-.555.2217-.9066,0-.3427-.0739-.6373-.2217-.8838-.1478-.246-.3462-.4335-.5947-.5624-.2484-.1285-.5227-.1925-.8223-.1925-.3045,0-.5798.063-.8262.1895-.246.1265-.4425.313-.5877.559-.1459.2464-.2188.5431-.2188.8902,0,.3516.0729.6537.2188.9066.1452.2525.3417.4444.5877.5749ZM85.0692,30.3305c.0536-.2078.1364-.3759.2475-.5044.1116-.1284.2485-.1929.4116-.1929.1627,0,.2996.0645.4112.1929.1116.1285.1939.2966.2475.5044.0535.2078.0803.4424.0803.7038,0,.2658-.0268.5059-.0803.7202-.0536.2142-.1374.3863-.2505.5173-.1136.1309-.2499.1958-.4082.1958-.1671,0-.3055-.0649-.4146-.1958-.1091-.131-.1909-.3021-.2445-.5144-.0536-.2118-.0804-.4528-.0804-.7231,0-.2614.0268-.496.0804-.7038Z" fill="#5b7dbc"/>
          <path d="M88.8137,32.6541v-.0258l-.0193-.0897c-.0387-.1587-.07-.3046-.0932-.4375-.0239-.1324-.0358-.2718-.0358-.4176v-1.4913c.2312-.1889.4565-.2892.675-.2892.1756.0045.3224.0625.4405.1736.1175.1116.1765.2807.1765.5079v1.099c0,.1458-.0119.2852-.0352.4176-.0238.1329-.057.2788-.0997.4375l-.0193.0897v.0258h1.1055v-.0258l-.0194-.0897c-.0426-.1587-.0758-.3046-.0992-.4375-.0238-.1324-.0357-.2718-.0357-.4176v-1.2017c0-.3556-.1007-.6259-.302-.8099-.2014-.1845-.4518-.2763-.7519-.2763-.253,0-.4746.0675-.6651.2024-.1465.1035-.2653.2427-.37.4004v-.5645h-.9572v.0257l.0253.0903c.0387.1582.0699.304.0933.4369.0237.1329.0357.2723.0357.4176v1.2791c0,.1458-.012.2852-.0357.4176-.0234.1329-.0546.2788-.0933.4375l-.0253.0897v.0258h1.1055Z" fill="#5b7dbc"/>
          <path d="M92.3098,32.7057c.2142,0,.4017-.0441.5624-.1319s.2882-.1949.3824-.3214c.0126-.0169.0195-.0325.0309-.0491.0261.1206.0731.223.1461.303.1131.1245.2708.1865.4722.1865.1542,0,.2827-.0397.3859-.119.1026-.0794.1691-.1855.1989-.3179l-.0125-.0194c-.1418.0556-.2445.0536-.3084-.0064-.0645-.06-.0968-.1801-.0968-.3601v-1.4398c0-.3214-.1007-.5743-.302-.7583-.2014-.1845-.497-.2763-.8868-.2763-.1845,0-.3977.0214-.6398.064-.242.0432-.4895.1032-.7424.1801v.8228h.0322c.2445-.2317.484-.4231.7201-.5754.2356-.1522.4305-.2281.5848-.2281.1329,0,.2366.058.3114.1736.0754.1155.1126.302.1126.5589v.3944c-.0456-.016-.0946-.031-.1508-.0437-.0838-.0194-.1706-.0312-.2603-.0357-.2788-.0382-.5391-.0203-.7812.0545-.242.0754-.4349.1964-.5783.3636-.1438.1671-.2152.364-.2152.5912,0,.1716.0397.3332.119.485.0789.1523.1979.2743.3566.3665.1582.0923.3447.1384.559.1384ZM92.2359,31.2337c.0793-.1116.1983-.192.3566-.2411.1587-.049.3471-.0565.5659-.0222.0378.0057.0697.0044.1026.0043v1.0109c0,.0063.0011.0117.0012.0179-.0458.0513-.0935.0985-.1455.1363-.118.0858-.2455.1284-.3824.1284-.18,0-.3278-.061-.4439-.183-.1155-.122-.1735-.2796-.1735-.4721,0-.1419.0396-.2678.119-.3794Z" fill="#5b7dbc"/>
          <path d="M95.7582,32.1011c-.0238-.1324-.0357-.2718-.0357-.4176v-3.8244l-.8288.1032-.1542.0258.0064.0253c.004.0129.0149.0412.0318.0838.0387.1329.0719.2668.0997.4017.0277.1349.0421.2818.0421.44v2.7446c0,.1458-.0119.2852-.0357.4176-.0233.1329-.0565.2788-.0997.4375l-.0188.0897v.0258h1.1119v-.0258l-.0258-.0897c-.0386-.1587-.0699-.3046-.0932-.4375Z" fill="#5b7dbc"/>
          <path d="M98.6437,32.0788c-.1651.0664-.3353.0997-.5108.0997-.2316,0-.4255-.059-.5818-.1766-.1562-.118-.2733-.2807-.3501-.4885-.06-.1612-.0896-.3484-.1031-.5495h2.1147c0-.2916-.0516-.555-.1542-.7906-.1027-.2356-.2624-.4245-.4787-.5659-.2167-.1413-.481-.2118-.794-.2118-.304,0-.5763.0675-.8163.2024-.2401.1349-.4266.3278-.559.5783-.1329.251-.1994.5411-.1994.8709,0,.3472.0729.6473.2187.8997.1453.2529.3383.4439.5783.5723.2401.1285.497.193.7712.193.2317,0,.4415-.0442.6299-.132.1885-.0878.3492-.2033.4821-.3472.1329-.1433.2316-.2966.2956-.4592l-.0258-.0193c-.1795.1497-.3521.2579-.5173.3243ZM97.2491,29.9645c.1135-.2207.2881-.3313.5237-.3313.2098,0,.3655.0922.4662.2763.1007.1845.1553.431.1637.7394l-1.3167.156c0-.0052-.0011-.0094-.0011-.0146-.004-.3298.0506-.6051.1642-.8258Z" fill="#5b7dbc"/>
          <path d="M54.5655,37.9629c-.0238-.1324-.0353-.2718-.0353-.4176v-3.8244l-.8292.1032-.2058.0317.0064.0194c.0045.0173.0109.0386.0194.0645.1369.2871.2058.5743.2058.861v.9305c-.0741-.1082-.1629-.201-.2698-.2749-.1929-.1324-.4097-.1989-.6492-.1989-.2361,0-.4543.063-.6557.1895-.2014.1264-.363.315-.4855.5654-.1221.251-.1831.554-.1831.9096,0,.3516.0601.6512.1801.8997.12.249.2772.4364.4721.5624.195.1265.4082.19.6398.19.2183,0,.4251-.0591.62-.1771.141-.0851.263-.208.3672-.3662.0012.0049.0015.0112.0028.016.0253.0987.062.1994.1091.3021.0129.0302.0243.059.0352.0868.0109.0277.0203.0545.0288.0803h.7459v-.0258l-.0258-.0897c-.0387-.1587-.0699-.3046-.0932-.4375ZM53.518,38.0308c-.1265.0834-.2628.125-.4082.125-.2574,0-.4468-.1185-.5688-.3565-.1221-.2376-.1836-.5387-.1836-.9032,0-.2311.0303-.4359.0903-.6135.06-.1781.1478-.3174.2634-.4181.1155-.1007.2574-.1507.4245-.1507.1498,0,.2867.0406.4112.1219.064.042.1238.0915.18.1472v1.6973c0,.0607.0036.1149.0081.1675-.0715.0711-.1436.1344-.2169.1831Z" fill="#5b7dbc"/>
          <path d="M57.8979,36.0351c-.1027-.2356-.2624-.4245-.4787-.5659-.2167-.1413-.481-.2118-.794-.2118-.304,0-.5763.0675-.8164.2024-.24.1349-.4265.3278-.5589.5783-.1329.2509-.1994.5411-.1994.8709,0,.3471.0729.6472.2187.8997.1453.2529.3383.4439.5783.5723.2401.1285.497.193.7713.193.2316,0,.4414-.0442.6298-.132.1885-.0878.3492-.2033.4821-.3472.1329-.1433.2316-.2966.2956-.4592l-.0258-.0194c-.1795.1498-.3521.2579-.5173.3244-.1651.0664-.3352.0997-.5108.0997-.2316,0-.4255-.059-.5818-.1766-.1562-.118-.2732-.2807-.3501-.4885-.06-.1611-.0896-.3484-.1031-.5495h2.1147c0-.2916-.0516-.555-.1542-.7906ZM55.9255,36.6667c0-.0052-.0011-.0094-.0011-.0146-.004-.3298.0506-.6051.1642-.8258.1135-.2207.2881-.3313.5237-.3313.2098,0,.3655.0922.4662.2762.1007.1845.1553.4311.1637.7395l-1.3167.156Z" fill="#5b7dbc"/>
          <path d="M60.8964,37.9629c-.0237-.1324-.0357-.2718-.0357-.4176v-3.8244l-.8287.1032-.1543.0258.0065.0253c.0039.0129.0149.0412.0317.0838.0387.1329.0719.2668.0997.4017s.0422.2818.0422.44v2.7446c0,.1458-.0119.2852-.0358.4176-.0232.1329-.0565.2788-.0996.4375l-.0189.0897v.0258h1.112v-.0258l-.0258-.0897c-.0387-.1587-.0699-.3046-.0933-.4375Z" fill="#5b7dbc"/>
          <path d="M64.2035,38.0919c-.0644-.06-.0967-.1801-.0967-.3601v-1.4398c0-.3214-.1007-.5743-.302-.7583-.2014-.1845-.497-.2763-.8868-.2763-.1845,0-.3978.0214-.6398.064-.242.0432-.4895.1032-.7425.1801v.8228h.0323c.2445-.2317.484-.4231.7201-.5754.2356-.1522.4305-.2281.5847-.2281.133,0,.2366.058.3115.1736.0754.1155.1126.302.1126.5589v.3944c-.0456-.016-.0946-.031-.1508-.0437-.0838-.0194-.1706-.0313-.2603-.0357-.2788-.0382-.5392-.0204-.7812.0545-.242.0754-.4349.1964-.5783.3636-.1438.1671-.2152.364-.2152.5912,0,.1716.0396.3332.119.485.0789.1523.1979.2743.3566.3665.1582.0922.3447.1384.559.1384s.4017-.0442.5624-.1319c.1607-.0878.2881-.1949.3823-.3214.0126-.0169.0196-.0325.0309-.0491.0262.1206.0732.223.1462.303.1131.1245.2708.1865.4722.1865.1542,0,.2827-.0397.3858-.119.1027-.0794.1691-.1855.1989-.3179l-.0124-.0194c-.1418.0556-.2445.0536-.3085-.0064ZM63.1526,38.0016c-.1181.0858-.2455.1284-.3824.1284-.18,0-.3278-.061-.4439-.183-.1156-.122-.1736-.2797-.1736-.4721,0-.1419.0397-.2678.119-.3794.0794-.1116.1984-.192.3566-.2411.1587-.049.3472-.0565.5659-.0222.0379.0057.0698.0044.1027.0043v1.0109c0,.0063.0011.0117.0012.0179-.0458.0513-.0935.0985-.1455.1363Z" fill="#5b7dbc"/>
          <path d="M67.9118,35.2574c-.1845.0511-.3417.1444-.4726.2793-.0966.0999-.1737.2212-.241.3529v-.5939h-.9573v.0257l.0253.0903c.0387.1582.07.304.0933.4369.0238.1329.0357.2723.0357.4176v1.2791c0,.1458-.0119.2852-.0357.4176-.0233.1329-.0546.2788-.0933.4375l-.0253.0897v.0258h1.1056v-.0258l-.0194-.0897c-.0387-.1587-.0699-.3046-.0932-.4375-.0239-.1324-.0357-.2718-.0357-.4176v-1.4938c.1156-.0951.2356-.1557.36-.1771.1503-.0258.2946-.0109.434.0447.1393.056.2643.1373.3759.2444h.0258l.122-.8743c-.2182-.0724-.4201-.0833-.6041-.0318Z" fill="#5b7dbc"/>
          <path d="M71.5433,36.0351c-.1027-.2356-.2624-.4245-.4786-.5659-.2167-.1413-.4811-.2118-.7941-.2118-.304,0-.5763.0675-.8163.2024-.2401.1349-.4265.3278-.559.5783-.1329.2509-.1993.5411-.1993.8709,0,.3471.0728.6472.2187.8997.1453.2529.3382.4439.5783.5723.24.1285.4969.193.7712.193.2316,0,.4414-.0442.6299-.132.1884-.0878.3491-.2033.482-.3472.133-.1433.2317-.2966.2956-.4592l-.0257-.0194c-.1796.1498-.3522.2579-.5173.3244-.1652.0664-.3353.0997-.5109.0997-.2316,0-.4255-.059-.5818-.1766-.1562-.118-.2732-.2807-.3501-.4885-.06-.1611-.0895-.3484-.103-.5495h2.1146c0-.2916-.0515-.555-.1542-.7906ZM69.5709,36.6667c0-.0052-.001-.0094-.001-.0146-.004-.3298.0505-.6051.1641-.8258s.2882-.3313.5237-.3313c.2098,0,.3656.0922.4663.2762.1006.1845.1552.4311.1636.7395l-1.3167.156Z" fill="#5b7dbc"/>
          <path d="M74.0112,38.0403c-.2271,0-.4191-.0566-.5753-.1701-.1563-.1136-.2743-.2713-.3536-.4727-.0794-.2013-.1191-.4389-.1191-.7132-.0039-.2187.0219-.4171.0774-.5946.0556-.1781.1384-.3214.2475-.4306.1091-.1095.2475-.1641.4146-.1641.2143,0,.4211.0962.62.2891.1993.193.3739.4137.5242.6622h.0317l-.0129-.8868c-.051-.0174-.1135-.0432-.1859-.0774-.1801-.0684-.3472-.123-.5015-.1637-.1542-.0406-.3194-.061-.4949-.061-.313,0-.5892.065-.8293.1959-.24.131-.4275.3204-.5624.5689s-.2024.5441-.2024.8868c0,.3556.073.6586.2188.9096.1453.2504.3382.4394.5783.5654.24.1265.4969.19.7712.19.2227,0,.425-.0422.6075-.1255.1821-.0838.3373-.1949.4658-.3343.1289-.1394.2271-.2902.2955-.4533l-.0188-.0129c-.3259.2618-.6582.3923-.9964.3923Z" fill="#5b7dbc"/>
          <path d="M78.4749,37.9629c-.0233-.1324-.0352-.2718-.0352-.4176v-1.2017c0-.3556-.1007-.6259-.3021-.8099-.2013-.1845-.4523-.2763-.7518-.2763-.2485,0-.4692.0665-.6622.1989-.1376.0948-.2615.2182-.3729.3675v-2.1029l-.8223.1032-.1543.0258.0065.0253c.0039.0129.0148.0412.0317.0838.0387.1329.0719.2668.0997.4017s.0417.2818.0417.44v2.7446c0,.1458-.0115.2852-.0353.4176-.0233.1329-.0565.2788-.0997.4375l-.0193.0897v.0258h1.1055v-.0258l-.0188-.0897c-.0432-.1587-.0764-.3046-.0997-.4375-.0238-.1324-.0357-.2718-.0357-.4176v-1.5205c.2193-.1659.4357-.2536.6492-.2536.1845,0,.3377.0561.4597.1672.122.1116.183.2807.183.5079v1.099c0,.1458-.0119.2852-.0352.4176-.0238.1329-.057.2788-.0996.4375l-.0194.0897v.0258h1.1055v-.0258l-.0193-.0897c-.0427-.1587-.0759-.3046-.0997-.4375Z" fill="#5b7dbc"/>
          <path d="M81.8008,36.0351c-.1026-.2356-.2624-.4245-.4786-.5659-.2167-.1413-.4811-.2118-.794-.2118-.3041,0-.5763.0675-.8164.2024s-.4265.3278-.5589.5783c-.133.2509-.1994.5411-.1994.8709,0,.3471.0729.6472.2187.8997.1453.2529.3382.4439.5783.5723.2401.1285.497.193.7712.193.2316,0,.4414-.0442.6299-.132.1884-.0878.3491-.2033.4821-.3472.1329-.1433.2316-.2966.2955-.4592l-.0257-.0194c-.1796.1498-.3522.2579-.5173.3244-.1652.0664-.3353.0997-.5109.0997-.2316,0-.4255-.059-.5817-.1766-.1562-.118-.2733-.2807-.3502-.4885-.06-.1611-.0895-.3484-.103-.5495h2.1146c0-.2916-.0515-.555-.1542-.7906ZM79.8284,36.6667c0-.0052-.001-.0094-.001-.0146-.004-.3298.0506-.6051.1641-.8258.1136-.2207.2882-.3313.5238-.3313.2098,0,.3655.0922.4662.2762.1006.1845.1552.4311.1636.7395l-1.3167.156Z" fill="#5b7dbc"/>
          <path d="M84.0247,35.2574c-.1845.0511-.3417.1444-.4727.2793-.0965.0999-.1737.2212-.241.353v-.594h-.9572v.0257l.0253.0903c.0387.1582.0699.304.0932.4369.0238.1329.0357.2723.0357.4176v1.2791c0,.1458-.0119.2852-.0357.4176-.0233.1329-.0545.2788-.0932.4375l-.0253.0897v.0258h1.1055v-.0258l-.0193-.0897c-.0387-.1587-.07-.3046-.0933-.4375-.0238-.1324-.0357-.2718-.0357-.4176v-1.4938c.1156-.0951.2357-.1557.3601-.1771.1503-.0258.2946-.0109.4339.0447.1394.056.2644.1373.376.2444h.0258l.122-.8743c-.2182-.0724-.4201-.0833-.6041-.0318Z" fill="#5b7dbc"/>
          <path d="M86.7312,38.0403c-.2272,0-.4191-.0566-.5753-.1701-.1563-.1136-.2743-.2713-.3537-.4727-.0793-.2013-.119-.4389-.119-.7132-.004-.2187.0218-.4171.0774-.5946.0555-.1781.1384-.3214.2475-.4306.1091-.1095.2474-.1641.4146-.1641.2142,0,.4211.0962.6199.2891.1994.193.374.4137.5243.6622h.0317l-.0129-.8868c-.0511-.0174-.1136-.0432-.186-.0774-.18-.0684-.3471-.123-.5014-.1637-.1542-.0406-.3194-.061-.495-.061-.3129,0-.5892.065-.8292.1959-.2401.131-.4275.3204-.5624.5689s-.2024.5441-.2024.8868c0,.3556.0729.6586.2187.9096.1453.2504.3383.4394.5783.5654.2401.1265.497.19.7712.19.2228,0,.4251-.0422.6076-.1255.182-.0838.3373-.1949.4657-.3343.129-.1394.2272-.2902.2956-.4533l-.0188-.0129c-.3259.2618-.6582.3923-.9964.3923Z" fill="#5b7dbc"/>
          <path d="M91.1943,37.9629c-.0233-.1324-.0352-.2718-.0352-.4176v-1.2017c0-.3556-.1006-.6259-.302-.8099-.2014-.1845-.4523-.2763-.7519-.2763-.2485,0-.4692.0665-.6621.1989-.1376.0949-.2616.2182-.373.3675v-2.1029l-.8223.1032-.1542.0258.0064.0253c.004.0129.0149.0412.0318.0838.0387.1329.0719.2668.0997.4017.0277.1349.0416.2818.0416.44v2.7446c0,.1458-.0114.2852-.0352.4176-.0233.1329-.0565.2788-.0997.4375l-.0193.0897v.0258h1.1055v-.0258l-.0189-.0897c-.0431-.1587-.0764-.3046-.0997-.4375-.0238-.1324-.0357-.2718-.0357-.4176v-1.5205c.2194-.1659.4357-.2536.6493-.2536.1844,0,.3377.0561.4597.1672.122.1116.183.2807.183.5079v1.099c0,.1458-.0119.2852-.0352.4176-.0238.1329-.057.2788-.0997.4375l-.0193.0897v.0258h1.1055v-.0258l-.0194-.0897c-.0426-.1587-.0758-.3046-.0997-.4375Z" fill="#5b7dbc"/>
          <path d="M94.5208,36.0351c-.1027-.2356-.2624-.4245-.4786-.5659-.2168-.1413-.4811-.2118-.7941-.2118-.304,0-.5763.0675-.8163.2024-.2401.1349-.4265.3278-.559.5783-.1329.2509-.1993.5411-.1993.8709,0,.3471.0729.6472.2187.8997.1453.2529.3382.4439.5783.5723.24.1285.4969.193.7712.193.2316,0,.4414-.0442.6299-.132.1884-.0878.3491-.2033.482-.3472.133-.1433.2317-.2966.2956-.4592l-.0258-.0194c-.1795.1498-.3521.2579-.5172.3244-.1652.0664-.3353.0997-.5109.0997-.2316,0-.4255-.059-.5817-.1766-.1563-.118-.2733-.2807-.3502-.4885-.06-.1611-.0896-.3484-.103-.5495h2.1146c0-.2916-.0516-.555-.1542-.7906ZM92.5484,36.6667c0-.0052-.0011-.0094-.0011-.0146-.0039-.3298.0506-.6051.1642-.8258s.2882-.3313.5237-.3313c.2098,0,.3656.0922.4662.2762.1007.1845.1553.4311.1637.7395l-1.3167.156Z" fill="#5b7dbc"/>
        </g>
      </g>
    </g>
  </g>
</svg>