<?xml version="1.0" standalone="no"?>
<!DOCTYPE svg PUBLIC "-//W3C//DTD SVG 20010904//EN"
 "http://www.w3.org/TR/2001/REC-SVG-20010904/DTD/svg10.dtd">
<svg version="1.0" xmlns="http://www.w3.org/2000/svg"
 width="385.000000pt" height="385.000000pt" viewBox="0 0 385.000000 385.000000"
 preserveAspectRatio="xMidYMid meet">
<metadata>
Created by potrace 1.11, written by Peter Selinger 2001-2013
</metadata>
<g transform="translate(0.000000,385.000000) scale(0.100000,-0.100000)"
fill="#000000" stroke="none">
<path d="M1780 3707 c-3 -2 -36 -7 -75 -11 -38 -3 -81 -8 -95 -10 -14 -3 -38
-7 -55 -9 -144 -22 -357 -93 -520 -173 -71 -35 -139 -69 -150 -76 -130 -85
-178 -119 -252 -182 -340 -284 -556 -668 -617 -1093 -13 -93 -15 -392 -2 -453
3 -14 10 -53 16 -88 64 -365 295 -753 600 -1007 240 -200 576 -364 860 -419
14 -2 48 -9 76 -15 132 -26 443 -36 598 -18 150 17 359 68 501 124 81 32 247
113 300 146 462 287 750 684 852 1176 22 106 26 154 27 301 1 151 -9 302 -20
321 -2 3 -6 21 -9 40 -10 58 -54 206 -86 287 -155 393 -485 745 -885 945 -202
101 -392 159 -654 202 -44 7 -404 18 -410 12z m415 -142 c90 -13 274 -59 354
-87 629 -221 1060 -718 1155 -1333 14 -87 15 -363 2 -445 -48 -300 -185 -588
-390 -821 -248 -281 -601 -485 -987 -568 -138 -30 -211 -36 -409 -36 -268 0
-438 29 -667 115 -520 196 -909 598 -1059 1095 -65 213 -80 467 -43 694 96
576 517 1063 1109 1284 123 46 196 65 355 92 112 19 159 22 335 19 113 -1 223
-5 245 -9z"/>
<path d="M1624 3462 c-17 -12 -504 -752 -504 -766 0 -2 -41 -72 -90 -157 -101
-171 -430 -826 -430 -855 0 -17 48 -96 62 -102 5 -2 8 -7 8 -12 0 -7 161 -262
265 -420 13 -19 91 -141 174 -270 82 -129 157 -246 167 -259 l17 -23 591 5
c325 3 598 8 607 12 9 3 25 23 36 45 37 67 645 1084 659 1101 18 21 18 64 -1
93 -8 12 -26 54 -39 92 -25 69 -113 282 -159 384 -63 139 -96 209 -116 252
-24 49 -7 36 -406 328 -49 36 -209 151 -355 255 -146 104 -301 215 -344 247
-76 55 -115 69 -142 50z m46 -202 c0 -4 17 -39 39 -77 21 -37 53 -95 71 -128
18 -33 63 -114 100 -180 37 -66 84 -151 105 -190 21 -38 107 -195 192 -348 84
-153 153 -282 153 -287 0 -6 -8 -10 -17 -11 -10 0 -29 -2 -42 -5 -13 -2 -89
-16 -170 -30 -80 -14 -157 -27 -171 -30 -28 -6 -38 -7 -135 -23 -38 -7 -133
-23 -210 -37 -77 -14 -158 -28 -180 -30 -22 -3 -46 -7 -54 -10 -8 -3 -30 -7
-50 -10 -20 -3 -72 -12 -116 -19 -44 -8 -98 -17 -120 -21 -22 -3 -94 -16 -161
-28 l-121 -22 20 45 c60 137 314 622 387 741 5 8 35 58 66 110 31 52 133 211
226 352 148 225 188 275 188 238z m484 -285 c109 -77 278 -200 377 -272 l179
-133 -58 -92 c-31 -52 -91 -148 -132 -215 -41 -67 -78 -123 -82 -123 -3 0 -50
80 -104 178 -53 97 -106 193 -117 212 -11 19 -91 166 -179 325 -88 160 -166
300 -174 313 -17 25 -22 29 290 -193z m715 -699 c70 -157 151 -352 151 -365 0
-5 -21 -3 -47 5 -26 8 -57 16 -68 19 -40 8 -369 96 -372 99 -2 1 46 81 105
177 60 96 117 188 127 206 24 40 23 42 104 -141z m-508 -363 c1 -9 6 -158 13
-414 l5 -177 -187 49 c-103 27 -196 51 -207 53 -52 12 -465 118 -505 131 -25
7 -144 39 -265 71 l-219 58 124 22 c69 13 141 25 160 28 67 10 275 46 290 51
8 2 33 6 55 10 22 3 65 10 95 15 30 5 71 12 90 15 19 4 72 13 118 21 45 8 99
17 120 20 20 3 43 7 50 10 8 2 37 7 65 10 29 4 55 8 58 10 3 1 28 6 55 10 27
3 51 8 53 10 7 7 31 4 32 -3z m319 -53 c85 -23 162 -42 170 -44 84 -21 173
-45 177 -50 3 -3 -74 -139 -172 -303 -98 -164 -212 -355 -254 -425 -41 -70
-76 -126 -78 -125 -3 3 -9 179 -18 512 -3 105 -8 256 -10 337 -5 135 -4 146
13 142 9 -2 87 -22 172 -44z m-1730 -301 c79 -18 266 -66 500 -130 25 -7 50
-13 55 -15 6 -1 154 -39 330 -84 176 -46 343 -88 370 -95 l50 -12 -345 -171
c-190 -94 -395 -201 -455 -236 l-109 -65 -37 57 c-20 31 -70 109 -111 172 -93
143 -372 580 -382 598 -6 9 -1 11 16 8 12 -3 66 -15 118 -27z m1439 -582 c2
-78 4 -163 5 -189 2 -38 -1 -48 -13 -49 -103 -6 -813 -8 -808 -2 22 21 803
400 808 392 3 -6 7 -74 8 -152z"/>
</g>
</svg>
