<?xml version="1.0" encoding="UTF-8" standalone="no"?>
<!-- Created with Inkscape (http://www.inkscape.org/) -->

<svg
   xmlns:dc="http://purl.org/dc/elements/1.1/"
   xmlns:cc="http://creativecommons.org/ns#"
   xmlns:rdf="http://www.w3.org/1999/02/22-rdf-syntax-ns#"
   xmlns:svg="http://www.w3.org/2000/svg"
   xmlns="http://www.w3.org/2000/svg"
   xmlns:sodipodi="http://sodipodi.sourceforge.net/DTD/sodipodi-0.dtd"
   xmlns:inkscape="http://www.inkscape.org/namespaces/inkscape"
   width="48"
   height="48"
   viewBox="0 0 12.7 12.699999"
   version="1.1"
   id="svg8"
   inkscape:version="0.92.4 (5da689c313, 2019-01-14)"
   sodipodi:docname="logo-phis.svg">
  <defs
     id="defs2">
    <clipPath
       clipPathUnits="userSpaceOnUse"
       id="clipPath3760">
      <ellipse
         style="fill:#b3b3b3;fill-opacity:1;stroke-width:0.30725378"
         id="ellipse3762"
         cx="61.940548"
         cy="167.33562"
         rx="74.215622"
         ry="55.827084"
         transform="rotate(-33.674473)" />
    </clipPath>
    <clipPath
       clipPathUnits="userSpaceOnUse"
       id="clipPath3879">
      <rect
         y="209.42293"
         x="38.629166"
         height="190.76457"
         width="220.66249"
         id="rect3881"
         style="fill:#808080;fill-opacity:1;stroke-width:0.26643744" />
    </clipPath>
  </defs>
  <sodipodi:namedview
     id="base"
     pagecolor="#ffffff"
     bordercolor="#666666"
     borderopacity="1.0"
     inkscape:pageopacity="0.0"
     inkscape:pageshadow="2"
     inkscape:zoom="1"
     inkscape:cx="578.69678"
     inkscape:cy="-175.11736"
     inkscape:document-units="mm"
     inkscape:current-layer="layer1"
     showgrid="false"
     showborder="true"
     inkscape:window-width="1920"
     inkscape:window-height="1017"
     inkscape:window-x="-8"
     inkscape:window-y="-8"
     inkscape:window-maximized="1"
     showguides="true"
     fit-margin-top="0"
     fit-margin-left="0"
     fit-margin-right="0"
     fit-margin-bottom="0"
     units="px" />
  <metadata
     id="metadata5">
    <rdf:RDF>
      <cc:Work
         rdf:about="">
        <dc:format>image/svg+xml</dc:format>
        <dc:type
           rdf:resource="http://purl.org/dc/dcmitype/StillImage" />
        <dc:title></dc:title>
      </cc:Work>
    </rdf:RDF>
  </metadata>
  <g
     inkscape:label="Calque 1"
     inkscape:groupmode="layer"
     id="layer1"
     transform="translate(-149.10028,-262.86865)">
    <path
       style="fill:#ffffff;fill-opacity:1;stroke-width:0.06543985"
       d="m 161.07252,262.86865 -0.28684,0.04 c -3.25766,0.45379 -5.7391,1.60759 -7.08862,3.29596 -1.619,2.02554 -1.7049,4.28918 -0.21931,5.78088 0.48051,0.48249 0.60675,0.54512 0.5275,0.26176 -0.095,-0.3399 -0.14837,-1.59535 -0.024,-2.04495 0.31996,-1.15682 1.3263,-2.55905 2.28209,-3.37569 0.72148,-0.61642 0.83784,-0.64866 0.31539,-0.0873 -0.7987,0.85811 -1.37871,1.86353 -1.71466,2.97224 -0.15971,0.52704 -0.21711,1.03449 -0.19882,1.67265 0.007,0.24799 0.11842,0.67063 0.15232,0.92108 h 0.78378 v -0.68219 h 1.06152 v -0.88203 h 1.08188 v -0.50865 h 0.92902 v -0.47322 h 0.56616 c 0.25634,-0.78235 0.3641,-1.32544 0.4742,-2.54664 0.10344,-1.14731 0.23129,-1.96189 0.40382,-2.57258 0.15278,-0.54085 0.49518,-1.248 0.73836,-1.52497 z m -7.46977,0.59333 c -0.1037,0 -1.2392,0.72885 -1.6801,1.12398 -0.96473,0.86459 -1.60039,1.81168 -1.90283,2.8351 -0.17857,0.6043 -0.165,1.70677 0.0279,2.26591 0.38312,1.11037 1.27717,2.06617 2.34898,2.51132 0.60493,0.25125 0.66977,0.21721 0.32227,-0.16929 -0.59084,-0.65715 -0.88885,-1.48987 -0.89008,-2.48706 -9.7e-4,-1.15777 0.42959,-2.29258 1.31191,-3.45406 l 0.46592,-0.61342 c -0.16811,-0.72651 -0.15291,-1.12691 -0.004,-2.01248 z"
       id="path3766"
       inkscape:export-xdpi="96"
       inkscape:export-ydpi="96"
       inkscape:connector-curvature="0"
       sodipodi:nodetypes="cccccccccccccccccccccccccccccsccccc" />
    <rect
       style="fill:#ffffff;fill-opacity:1;stroke-width:0.03226626"
       id="rect3835"
       width="1.3229166"
       height="1.3229166"
       x="157.56694"
       y="271.07074"
       inkscape:export-xdpi="96"
       inkscape:export-ydpi="96" />
    <rect
       y="272.65823"
       x="155.45029"
       height="1.0583333"
       width="1.0583333"
       id="rect3837"
       style="fill:#ffffff;fill-opacity:1;stroke-width:0.02581299"
       inkscape:export-xdpi="96"
       inkscape:export-ydpi="96" />
    <rect
       style="fill:#ffffff;fill-opacity:1;stroke-width:0.01935975"
       id="rect3839"
       width="0.79374999"
       height="0.79374999"
       x="159.68361"
       y="272.65823"
       inkscape:export-xdpi="96"
       inkscape:export-ydpi="96" />
    <rect
       y="273.71655"
       x="158.88986"
       height="0.52916664"
       width="0.52916664"
       id="rect3841"
       style="fill:#ffffff;fill-opacity:1;stroke-width:0.01290651"
       inkscape:export-xdpi="96"
       inkscape:export-ydpi="96" />
    <rect
       y="273.18741"
       x="157.30237"
       height="0.52916664"
       width="0.52916664"
       id="rect3843"
       style="fill:#ffffff;fill-opacity:1;stroke-width:0.0129065"
       inkscape:export-xdpi="96"
       inkscape:export-ydpi="96" />
    <rect
       style="fill:#ffffff;fill-opacity:1;stroke-width:0.00645326"
       id="rect3845"
       width="0.26458332"
       height="0.26458332"
       x="159.9482"
       y="271.33533"
       inkscape:export-xdpi="96"
       inkscape:export-ydpi="96" />
    <rect
       style="fill:#ffffff;fill-opacity:1;stroke-width:0.00645326"
       id="rect3851"
       width="0.26458332"
       height="0.26458332"
       x="157.56694"
       y="274.7749"
       inkscape:export-xdpi="96"
       inkscape:export-ydpi="96" />
    <rect
       y="271.86447"
       x="156.50861"
       height="0.52916664"
       width="0.52916664"
       id="rect3853"
       style="fill:#ffffff;fill-opacity:1;stroke-width:0.01290651"
       inkscape:export-xdpi="96"
       inkscape:export-ydpi="96" />
    <rect
       y="274.51031"
       x="156.24403"
       height="0.79374999"
       width="0.79374999"
       id="rect3859"
       style="fill:#ffffff;fill-opacity:1;stroke-width:0.01935975"
       inkscape:export-xdpi="96"
       inkscape:export-ydpi="96" />
    <rect
       y="275.03949"
       x="158.88986"
       height="0.52916664"
       width="0.52916664"
       id="rect3861"
       style="fill:#ffffff;fill-opacity:1;stroke-width:0.01290651"
       inkscape:export-xdpi="96"
       inkscape:export-ydpi="96" />
  </g>
</svg>
